<svg xmlns="http://www.w3.org/2000/svg" width="1114" height="430" shape-rendering="geometricPrecision" image-rendering="optimizeQuality" fill-rule="evenodd" xmlns:v="https://vecta.io/nano"><g fill="#dddedd"><path d="M164.5-.5h100a251.78 251.78 0 0 1 0 44 423.51 423.51 0 0 1-28 1.5c-.457.414-.791.914-1 1.5.992 28.289 1.325 56.622 1 85h-45c-.309-29.032.024-58.032 1-87-9.387.307-18.72-.027-28-1a251.78 251.78 0 0 1 0-44z" opacity=".786"/><path d="M270.5-.5h69c-.219 1.175.114 2.175 1 3 23.992 9.328 34.825 26.662 32.5 52l-4 12a222.41 222.41 0 0 0-11.5 14c3.3 8.598 7.133 16.931 11.5 25a144.5 144.5 0 0 0 5 15c.71 1.473 1.876 2.14 3.5 2v9c-15.337.167-30.67 0-46-.5a195.61 195.61 0 0 1-7.5-13.5 151.64 151.64 0 0 1-7.5-19c-.999 10.98-1.332 21.98-1 33-15.245.324-30.411-.009-45.5-1a2906.78 2906.78 0 0 1 .5-131zm46 41a38.08 38.08 0 0 1 10 4c.914 7.756-2.753 11.423-11 11-.279-5.095.055-10.095 1-15z" opacity=".792"/><path d="M384.5-.5h44v132h-45c-.318-44.03.016-88.03 1-132z" opacity=".778"/><path d="M480.5-.5h51c1.673 4.484 5.006 6.984 10 7.5 8.472 6.306 16.139 13.473 23 21.5 3.382 5.74 6.215 11.74 8.5 18 .499 4.655.666 9.322.5 14-15.337.167-30.67 0-46-.5-8.38-16.498-20.714-20.165-37-11a45.24 45.24 0 0 0-7.5 8.5c-3.084 25.567 8.082 35.734 33.5 30.5 7.138-5.94 11.138-13.607 12-23a1012.93 1012.93 0 0 1 45-.5c.166 6.675 0 13.342-.5 20-2.695 3.111-4.028 6.777-4 11-7.965 15.82-19.798 27.653-35.5 35.5-5.507-.293-10.507 1.04-15 4-8.667.667-17.333.667-26 0-4.24-2.782-8.907-4.115-14-4a111.47 111.47 0 0 1-15-8c-4.515-4.682-9.181-9.182-14-13.5a552.44 552.44 0 0 1-9.5-16 28.79 28.79 0 0 0-4-15c-.667-7-.667-14 0-21 2.477-4.983 3.81-10.316 4-16 5.816-11.841 13.982-22.007 24.5-30.5a41.44 41.44 0 0 1 14-7c1.537-1.11 2.203-2.61 2-4.5z" opacity=".801"/><path d="M586.5-.5h44c.785 14.969 1.285 29.969 1.5 45l12-19c4.76-8.577 9.26-17.243 13.5-26h73c.206 3.414 1.706 6.081 4.5 8l8.5 15c3.945-5.786 8.111-11.452 12.5-17 1.128-1.845 1.628-3.845 1.5-6h43c.424 4.919-.41 9.586-2.5 14l-11.5 15c-5.849 11.021-12.349 21.688-19.5 32l-.5 71h-45l-.5-70c-6.844-10.828-13.511-21.828-20-33-1.938-2.89-4.105-5.556-6.5-8-3.669 5.494-7.502 10.828-11.5 16-.174 3.88-1.841 6.88-5 9l-1 5c-2.681 3.698-5.181 7.532-7.5 11.5.576 1.714 1.743 2.881 3.5 3.5-.22 3.748 1.113 6.748 4 9-.122 3.466 1.211 6.132 4 8l1 6c6.055 10.463 11.555 21.296 16.5 32.5 2.848 2.525 3.681 5.692 2.5 9.5a594.99 594.99 0 0 1-48.5 1c-5.418-15.082-11.251-30.082-17.5-45a8.9 8.9 0 0 1-3-4 1200.08 1200.08 0 0 0-.5 49h-46c-.318-44.03.016-88.03 1-132z" opacity=".776"/></g><path fill="#91ce1d" d="M322.5 159.5c1.778 3.417.611 5.417-3.5 6-.349-2.831.817-4.831 3.5-6z" opacity=".024"/><path fill="#9de109" d="M377.5 204.5c4.232 3.518 6.066 8.185 5.5 14 1.016 1.134 1.683.801 2-1 .964 5.805 2.131 11.472 3.5 17l29.5 79c2.481 13.176-2.852 20.842-16 23-10.81-3.674-21.31-7.674-31.5-12 2.047-1.515 4.381-2.349 7-2.5 1.333-1.667 1.333-3.333 0-5 5.373.593 7.206-1.907 5.5-7.5l-1-2c-.667 1.333-1.333 1.333-2 0-.003-3.258-1.17-5.925-3.5-8 .947-1.9 2.447-3.233 4.5-4 .274-3.655 1.44-6.988 3.5-10-.667-3.667-2.667-4.667-6-3l-2.5-3c-.175-3.711-.675-7.378-1.5-11-.765-1.112-1.765-1.779-3-2-1.551-5.435-4.385-10.101-8.5-14l-1-13c-.611-2.25-1.944-3.917-4-5 .342-6.319-1.658-11.652-6-16-.303-7.121-3.803-11.121-10.5-12 .237 1.291-.096 2.291-1 3-1.983 2.761-4.15 5.428-6.5 8-2.47 4.292-3.803 8.959-4 14-1.917 3.325-4.417 6.158-7.5 8.5-1.635 3.825-.968 7.158 2 10a171.33 171.33 0 0 1-9.5 18.5c.289 3.707.122 7.374-.5 11-2.899 4.65-5.899 9.15-9 13.5.063 3.209 1.73 4.876 5 5 1.773 3.384.773 5.551-3 6.5-3.203 4.961-2.536 9.128 2 12.5 2.902-1.804 6.235-2.971 10-3.5l13 .5c1.925 1.595 3.925 1.762 6 .5 4.763 3.109 5.096 6.609 1 10.5-4.805-.204-9.638-.704-14.5-1.5-1.728-.046-3.228.454-4.5 1.5 2.094 1.352 4.427 1.852 7 1.5v5h-1c-.575-3.973-2.742-4.973-6.5-3a8.43 8.43 0 0 0-.5 4h-1c.086-.996-.248-1.829-1-2.5a12.49 12.49 0 0 0-7 0c-8.402 2.375-16.402 5.542-24 9.5-7.739-1.923-13.572-6.257-17.5-13-.596-8.68.738-17.014 4-25a118.76 118.76 0 0 0 6.5-13c.876.131 1.543-.202 2-1a186.45 186.45 0 0 0 7.5-25c9.051-18.753 16.384-38.086 22-58a43.81 43.81 0 0 1 7-12c-.166-4.763 1.001-9.096 3.5-13 2.538-2.041 5.205-3.875 8-5.5-1.211-1.113-1.211-2.28 0-3.5 12.611-8.032 24.111-6.365 34.5 5 4.062 10.015 8.562 19.681 13.5 29zm-5 86h-1c-2.726-2.37-5.726-2.537-9-.5-4.77 9.015-2.104 13.182 8 12.5 2.522 1.502 2.522 2.835 0 4-8.436-.748-16.602.252-24.5 3-9.29-3.212-18.79-4.212-28.5-3-.739.131-1.406-.036-2-.5.805-1.113 1.472-2.279 2-3.5.996.086 1.829-.248 2.5-1 .687-2.068.52-4.068-.5-6a168.52 168.52 0 0 0 6-2c2.461 7.413 6.961 8.747 13.5 4a32.46 32.46 0 0 0 .5-8c-4.202.317-8.202-.017-12-1v-4c-2.091-.182-4.091.152-6 1-2.142-.937-2.476-2.27-1-4h3a85.81 85.81 0 0 0 1-7.5c.195-2.352-.472-4.352-2-6a40.3 40.3 0 0 1 8.5-12.5c1.136-2.596 1.969-5.263 2.5-8-.567-1.53-1.233-3.03-2-4.5 2.747-3.358 5.08-6.858 7-10.5-.732-6.309 1.101-11.976 5.5-17 .893-1.211 1.726-1.211 2.5 0 1.252 4.102 3.252 7.768 6 11-2.063 5.558-.897 10.225 3.5 14l1 14c3.912 3.922 7.079 8.422 9.5 13.5-1.528 1.648-2.195 3.648-2 6a85.81 85.81 0 0 0 1 7.5c1.175-.219 2.175.114 3 1 1.797 2.455 3.13 5.122 4 8z" opacity=".996"/><g fill="#dddedd"><path d="M-.5 168.5a2716.24 2716.24 0 0 1 127 1.5c1.158 17.426 1.325 34.926.5 52.5-12.086.988-24.253 1.322-36.5 1v112h-55a3053.68 3053.68 0 0 1 1-110c-.209-.586-.543-1.086-1-1.5-11.995-.5-23.995-.667-36-.5v-55z" opacity=".824"/><path d="M267.5 326.5v3 6a1300.05 1300.05 0 0 1-51-.5c-1.363-1.945-2.197-4.112-2.5-6.5-2.889-2.208-4.222-5.208-4-9-2.789-1.868-4.122-4.534-4-8-3.25-7.428-6.75-14.761-10.5-22l-2 45.5a486.64 486.64 0 0 1-54-.5c-1.162-53.292-1.329-106.626-.5-160a20.43 20.43 0 0 1 1.5-5.5c24.333-.667 48.667-.667 73 0a48.39 48.39 0 0 0 17 4c30.158 14.266 41.492 37.766 34 70.5a42.88 42.88 0 0 1-8.5 15c-2.897 3.527-6.064 6.694-9.5 9.5l15.5 37.5c.615 1.616 1.615 2.949 3 4l2.5 17zm-74-107c5.901-.757 11.234.576 16 4 1.155 2.946 1.321 5.946.5 9-.388.928-1.055 1.595-2 2-4.446.912-8.946 1.245-13.5 1 .108-5.37-.225-10.703-1-16z" opacity=".83"/></g><path fill="#76a527" d="M330.5 162.5c.17 1.322-.163 2.489-1 3.5a21.53 21.53 0 0 0-6 5c-.948.483-1.948.649-3 .5 1.826-4.63 5.159-7.63 10-9z" opacity=".196"/><path fill="#ddd" d="M372.5 167.5a2055.27 2055.27 0 0 1 63 2.5c3.841 5.185 5.675 11.018 5.5 17.5 2.96 4.493 4.293 9.493 4 15a9.9 9.9 0 0 0 2.5 5c3.497-12.654 7.831-24.988 13-37l3-1.5c18.664-.5 37.33-.667 56-.5v13c-1.322-.17-2.489.163-3.5 1a225.78 225.78 0 0 1-6 19 218.75 218.75 0 0 1-7 14 146.18 146.18 0 0 0-5 15c-1.385 1.051-2.385 2.384-3 4l-5 15-7 13c-.988 2.924-1.654 5.924-2 9l-3 3a183.59 183.59 0 0 0-5 17c-1.385 1.051-2.385 2.384-3 4L456.5 330c-.509 1.169-1.342 2.002-2.5 2.5a248.79 248.79 0 0 1-1.5 11c-8.625-.126-13.125-4.46-13.5-13a412.38 412.38 0 0 1-16.5-39.5 302.35 302.35 0 0 0-6.5-13.5 21.34 21.34 0 0 1-1.5-9h-3c.179-4.967-1.321-9.3-4.5-13l-1-6c-1.385-1.051-2.385-2.384-3-4a932.76 932.76 0 0 0-19.5-49c-.823-2.487-1.823-4.821-3-7 .271-1.88-.396-3.213-2-4a95.06 95.06 0 0 0-6-18z" opacity=".811"/><g fill="#dddedd"><path d="M563.5 168.5a1403.99 1403.99 0 0 1 53 .5l2.5 2.5c.792 17.365.625 34.698-.5 52-13.004-.167-26.004 0-39 .5-4 2-4 4 0 6 11.909.178 23.742.678 35.5 1.5a420.29 420.29 0 0 1 0 41c-13.425.824-26.925 1.324-40.5 1.5-1.333 2-1.333 4 0 6l42 1c.808.308 1.475.808 2 1.5 1.333 17.333 1.333 34.667 0 52-18.658 1.166-37.324 1.333-56 .5-4.203-2.782-8.87-4.116-14-4-4.632-2.233-8.966-4.9-13-8-4.199-4.261-8.033-8.761-11.5-13.5a274.9 274.9 0 0 1-5-18c-.949-28.368-.616-56.702 1-85 2.122-3.698 3.455-7.698 4-12l8.5-10.5c6.65-6.095 14.317-10.095 23-12 2.874-.942 5.54-2.109 8-3.5z" opacity=".815"/><path d="M636.5 168.5a716.6 716.6 0 0 1 53 1l1.5 106c.574 1.992 1.741 3.492 3.5 4.5 5.366.323 10.699.823 16 1.5a423.33 423.33 0 0 1 0 53c-9.983 1.166-19.983 1.332-30 .5-4.203-2.782-8.87-4.116-14-4-11.232-6.236-20.066-14.736-26.5-25.5l-1-7a6.86 6.86 0 0 1-3-5l-1-10c-.667-37.333-.667-74.667 0-112l1.5-3z" opacity=".801"/><path d="M716.5 168.5c17.577-.325 35.077.008 52.5 1l1 101c.116 3.432 1.283 6.432 3.5 9 4.613.779 9.28 1.279 14 1.5 1.016.519 1.682 1.353 2 2.5 1.315 17.215 1.315 34.382 0 51.5-9.667.667-19.333.667-29 0-4.203-2.782-8.87-4.116-14-4-4.548-2.405-8.881-5.239-13-8.5-5.487-4.976-9.987-10.642-13.5-17l-5-19a3362.57 3362.57 0 0 1 0-116c.717-.544 1.217-1.211 1.5-2z" opacity=".814"/><path d="M837.5 168.5a1351.5 1351.5 0 0 1 52 .5l1.5 1.5a675.91 675.91 0 0 1 0 52c-12.425.823-24.925 1.323-37.5 1.5-5.333 2-5.333 4 0 6a615.44 615.44 0 0 1 34 1.5 280.7 280.7 0 0 1 .5 41c-13.092.824-26.258 1.324-39.5 1.5-2.667 2-2.667 4 0 6a927.56 927.56 0 0 1 42 1.5c1 17.988 1.333 35.988 1 54-18.67.167-37.336 0-56-.5-4.203-2.782-8.87-4.116-14-4-4.693-2.474-9.193-5.307-13.5-8.5-10.212-10.106-15.212-22.44-15-37a1259.87 1259.87 0 0 1 0-71c1.084-16.002 8.25-28.502 21.5-37.5 7.568-3.251 15.235-6.085 23-8.5z" opacity=".827"/></g><path fill="#dedede" d="M1043.5 327.5c.28 1.915-.05 3.581-1 5a58 58 0 0 0-9 5h-1c-.67 0-1 .333-1 1h-3c-.67 0-1 .333-1 1h-3c1.16-.765 2.16-1.765 3-3a685.75 685.75 0 0 0-37-1.5c-3.644-2.975-5.477-6.808-5.5-11.5-2.889-2.208-4.222-5.208-4-9-2.68-2.376-4.013-5.376-4-9a274.86 274.86 0 0 0-9.5-20 712.19 712.19 0 0 1-1 50 777.44 777.44 0 0 1-55.5-1v-163a4.59 4.59 0 0 1 2.5-2.5c24.333-.667 48.667-.667 73 0 21.18 2.862 37.35 13.362 48.5 31.5 11.46 26.571 6.29 49.071-15.5 67.5 9.27 19.373 17.27 39.206 24 59.5zm-77-108c7.94-1.644 13.94.856 18 7.5-.029 3.823-1.695 6.489-5 8a36.23 36.23 0 0 1-12 0c.31-5.084-.024-10.25-1-15.5z" opacity=".821"/><path fill="#9ad719" d="M313.5 170.5c2.501.011 2.668.678.5 2-.464-.594-.631-1.261-.5-2z" opacity=".004"/><path fill="#8cbf22" d="M366.5 162.5l6 2v3a95.06 95.06 0 0 1 6 18c.16 1.653.826 2.986 2 4 1.177 2.179 2.177 4.513 3 7-1.086.12-1.753.787-2 2l3 8c-1.89.203-3.39-.463-4.5-2l-.5-9c-4.134-11.067-8.467-22.067-13-33z" opacity=".053"/><path fill="#97d918" d="M366.5 162.5c4.533 10.933 8.866 21.933 13 33-1.742 2.645-2.409 5.645-2 9-4.938-9.319-9.438-18.985-13.5-29-10.389-11.365-21.889-13.032-34.5-5-1.211 1.22-1.211 2.387 0 3.5-2.795 1.625-5.462 3.459-8 5.5-2.499 3.904-3.666 8.237-3.5 13a43.81 43.81 0 0 0-7 12c-5.616 19.914-12.949 39.247-22 58a186.45 186.45 0 0 1-7.5 25c-.457.798-1.124 1.131-2 1 1.755-8.452 3.755-16.785 6-25a14.97 14.97 0 0 1 3.5-3c3.205-9.32 5.705-18.82 7.5-28.5-.184-1.376-.851-2.209-2-2.5 1.393-4.807 2.06-9.807 2-15 3.638.763 5.138-.57 4.5-4-2.827-2.194-3.16-4.861-1-8 .744-2.793 2.577-4.293 5.5-4.5 4.218-4.987 6.718-10.821 7.5-17.5 1.611-3.775 4.111-6.775 7.5-9 1.052.149 2.052-.017 3-.5a21.53 21.53 0 0 1 6-5c.837-1.011 1.17-2.178 1-3.5.381-1.431 1.381-2.264 3-2.5 4.966-.146 9.8-.979 14.5-2.5 5.963 1.473 12.13 3.139 18.5 5z" opacity=".931"/><path fill="#4cde13" d="M387.5 213.5c2.367 2.445 3.367 5.445 3 9-1.322.17-2.489-.163-3.5-1-.801-2.867-.634-5.534.5-8z" opacity=".149"/><path fill="#86ce27" d="M379.5 195.5l.5 9c1.11 1.537 2.61 2.203 4.5 2 1.177 2.179 2.177 4.513 3 7-1.134 2.466-1.301 5.133-.5 8 1.011.837 2.178 1.17 3.5 1l2.5 3c3.285 11.531 7.618 22.531 13 33 .495 1.973.662 3.973.5 6-1.051 2.844-1.051 5.844 0 9-2.947-3.328-4.447-7.328-4.5-12l-3-2c.401-5.361-1.099-10.027-4.5-14-.337-4.647-2.337-8.314-6-11-1.369-5.528-2.536-11.195-3.5-17-.317 1.801-.984 2.134-2 1 .566-5.815-1.268-10.482-5.5-14-.409-3.355.258-6.355 2-9z" opacity=".659"/><path fill="#9de107" d="M1113.5 235.5v44c-3.82.385-7.49 1.385-11 3-1.11 12.116-4.28 23.782-9.5 35-7.18 8.509-16.01 14.676-26.5 18.5a288.42 288.42 0 0 1-24 .5v-4c.95-1.419 1.28-3.085 1-5 .65-.949.99-2.115 1-3.5a226.86 226.86 0 0 0-4.5-16.5 97.7 97.7 0 0 1-.5-14c3.35.165 6.68-.002 10-.5 1.89-2.19 4.06-4.023 6.5-5.5-.72-11.899 1.28-23.232 6-34 7.86-8.514 17.36-14.347 28.5-17.5a264.99 264.99 0 0 1 23-.5z" opacity=".926"/><path fill="#8dbc35" d="M406.5 264.5c.708 1.878 1.874 3.545 3.5 5 .711 5.419 2.544 10.419 5.5 15-2.36-2.001-5.027-3.668-8-5-.841-1.879-1.175-3.879-1-6-1.051-3.156-1.051-6.156 0-9z" opacity=".453"/><path fill="#8fd328" d="M294.5 229.5c1.149.291 1.816 1.124 2 2.5-1.795 9.68-4.295 19.18-7.5 28.5a14.97 14.97 0 0 0-3.5 3c-2.245 8.215-4.245 16.548-6 25a118.76 118.76 0 0 1-6.5 13c-3.262 7.986-4.596 16.32-4 25 3.928 6.743 9.761 11.077 17.5 13 7.598-3.958 15.598-7.125 24-9.5a12.49 12.49 0 0 1 7 0c.752.671 1.086 1.504 1 2.5-4.931 2.447-10.265 3.947-16 4.5-6.565 4.956-13.898 6.956-22 6l-7-3.5-6-10v-3a212.84 212.84 0 0 1 2.5-32l2-2c2.867-6.74 4.867-13.74 6-21 .615-1.616 1.615-2.949 3-4-.046-3.133.954-5.8 3-8 .988-2.924 1.654-5.924 2-9 3.366-6.739 6.199-13.739 8.5-21z" opacity=".525"/><path fill="#8ad329" d="M371.5 266.5a98.43 98.43 0 0 0 .5 14c4.428 4.075 6.928 9.075 7.5 15-2.772.095-4.772 1.429-6 4 3.304 2.847 4.638 6.514 4 11h-7v-4c2.522-1.165 2.522-2.498 0-4 .418-.722 1.084-1.222 2-1.5-2.262-3.269-2.595-6.769-1-10.5h1c-.87-2.878-2.203-5.545-4-8-.825-.886-1.825-1.219-3-1a85.81 85.81 0 0 1-1-7.5c-.195-2.352.472-4.352 2-6-2.421-5.078-5.588-9.578-9.5-13.5l-1-14c-4.397-3.775-5.563-8.442-3.5-14-2.748-3.232-4.748-6.898-6-11-.774-1.211-1.607-1.211-2.5 0-4.399 5.024-6.232 10.691-5.5 17h-6c.574 3.767-.593 6.767-3.5 9-.789 2.212-.622 4.212.5 6-.664 6.661-3.497 12.328-8.5 17-.499 5.657-.666 11.324-.5 17-1.476 1.73-1.142 3.063 1 4 1.909-.848 3.909-1.182 6-1v4c-1.422.209-2.755.709-4 1.5 1.323.816 1.989 1.983 2 3.5a168.52 168.52 0 0 1-6 2c1.02 1.932 1.187 3.932.5 6-.671.752-1.504 1.086-2.5 1h-4c.473-3.333-.86-5.5-4-6.5-1.304-.804-1.971-1.971-2-3.5 3.23-5.405 7.064-10.405 11.5-15-1.818-9.405.682-17.405 7.5-24-.299-5.682.201-11.348 1.5-17 .71-1.473 1.876-2.14 3.5-2 .962-7.712 3.796-14.712 8.5-21a8.43 8.43 0 0 0 .5-4c.904-.709 1.237-1.709 1-3 6.697.879 10.197 4.879 10.5 12 4.342 4.348 6.342 9.681 6 16 2.056 1.083 3.389 2.75 4 5l1 13c4.115 3.899 6.949 8.565 8.5 14z" opacity=".51"/><path fill="#51e31c" d="M338.5 232.5c-1.92 3.642-4.253 7.142-7 10.5.767 1.47 1.433 2.97 2 4.5h-4c-1.122-1.788-1.289-3.788-.5-6 2.907-2.233 4.074-5.233 3.5-9h6z" opacity=".11"/><path fill="#9bdd10" d="M340.5 209.5a8.43 8.43 0 0 1-.5 4c-4.704 6.288-7.538 13.288-8.5 21-1.624-.14-2.79.527-3.5 2-1.299 5.652-1.799 11.318-1.5 17-6.818 6.595-9.318 14.595-7.5 24-4.436 4.595-8.27 9.595-11.5 15 .029 1.529.696 2.696 2 3.5 3.14 1 4.473 3.167 4 6.5-1.941 1.511-2.441 3.511-1.5 6 1.699.906 3.533 1.239 5.5 1v-3c9.71-1.212 19.21-.212 28.5 3 7.898-2.748 16.064-3.748 24.5-3v4h7c.638-4.486-.696-8.153-4-11 1.228-2.571 3.228-3.905 6-4-.572-5.925-3.072-10.925-7.5-15a98.43 98.43 0 0 1-.5-14c1.235.221 2.235.888 3 2 .825 3.622 1.325 7.289 1.5 11l2.5 3c3.333-1.667 5.333-.667 6 3-2.06 3.012-3.226 6.345-3.5 10-2.053.767-3.553 2.1-4.5 4 2.33 2.075 3.497 4.742 3.5 8 .667 1.333 1.333 1.333 2 0l1 2c1.706 5.593-.127 8.093-5.5 7.5 1.333 1.667 1.333 3.333 0 5-2.619.151-4.953.985-7 2.5 10.19 4.326 20.69 8.326 31.5 12 13.148-2.158 18.481-9.824 16-23l-29.5-79c3.663 2.686 5.663 6.353 6 11 3.401 3.973 4.901 8.639 4.5 14l3 2c.053 4.672 1.553 8.672 4.5 12-.175 2.121.159 4.121 1 6 1.863 3.051 3.03 6.385 3.5 10a18.33 18.33 0 0 0 4 6c1.561 5.695 3.227 11.361 5 17 1.732 9.799-.768 18.299-7.5 25.5.752.671 1.086 1.504 1 2.5a111.42 111.42 0 0 1-11.5 4l-16.5-7.5c-19.064-4.089-38.397-5.922-58-5.5v-5c-2.573.352-4.906-.148-7-1.5 1.272-1.046 2.772-1.546 4.5-1.5 4.862.796 9.695 1.296 14.5 1.5 4.096-3.891 3.763-7.391-1-10.5-2.075 1.262-4.075 1.095-6-.5l-13-.5c-3.765.529-7.098 1.696-10 3.5-4.536-3.372-5.203-7.539-2-12.5 3.773-.949 4.773-3.116 3-6.5-3.27-.124-4.937-1.791-5-5 3.101-4.35 6.101-8.85 9-13.5.622-3.626.789-7.293.5-11a171.33 171.33 0 0 0 9.5-18.5c-2.968-2.842-3.635-6.175-2-10 3.083-2.342 5.583-5.175 7.5-8.5.197-5.041 1.53-9.708 4-14 2.35-2.572 4.517-5.239 6.5-8z" opacity=".992"/><path fill="#56e617" d="M313.5 302.5h4c-.528 1.221-1.195 2.387-2 3.5.594.464 1.261.631 2 .5v3c-1.967.239-3.801-.094-5.5-1-.941-2.489-.441-4.489 1.5-6z" opacity=".076"/><path fill="#96db14" d="M371.5 290.5c-1.595 3.731-1.262 7.231 1 10.5-.916.278-1.582.778-2 1.5-10.104.682-12.77-3.485-8-12.5 3.274-2.037 6.274-1.87 9 .5z" opacity=".26"/><path fill="#a2ea10" d="M327.5 288.5c3.798.983 7.798 1.317 12 1a32.46 32.46 0 0 1-.5 8c-6.539 4.747-11.039 3.413-13.5-4-.011-1.517-.677-2.684-2-3.5 1.245-.791 2.578-1.291 4-1.5z" opacity=".116"/><path fill="#7dc434" d="M329.5 247.5h4c-.531 2.737-1.364 5.404-2.5 8a40.3 40.3 0 0 0-8.5 12.5c1.528 1.648 2.195 3.648 2 6a85.81 85.81 0 0 1-1 7.5h-3c-.166-5.676.001-11.343.5-17 5.003-4.672 7.836-10.339 8.5-17z" opacity=".035"/><path fill="#89d025" d="M407.5 279.5c2.973 1.332 5.64 2.999 8 5a12.93 12.93 0 0 0 .5 5c1.385 1.051 2.385 2.384 3 4 .351 4.056 1.685 7.723 4 11 1.542 8.604 1.876 17.27 1 26-2.711 4.212-6.211 7.546-10.5 10 .086-.996-.248-1.829-1-2.5 6.732-7.201 9.232-15.701 7.5-25.5-1.773-5.639-3.439-11.305-5-17a18.33 18.33 0 0 1-4-6c-.47-3.615-1.637-6.949-3.5-10z" opacity=".386"/><path fill="#6de70d" d="M326.5 331.5c-2.403-.052-4.736.281-7 1a8.43 8.43 0 0 1 .5-4c3.758-1.973 5.925-.973 6.5 3z" opacity=".612"/><path fill="#9ee206" d="M338.5 374.5c-1.345-2.197-2.511-4.53-3.5-7-1.11-1.537-2.61-2.203-4.5-2-.239-1.967.094-3.801 1-5.5 8.191-6.028 15.524-12.861 22-20.5 3.616-2.229 7.282-2.396 11-.5 5.188 3.701 10.188 7.534 15 11.5 3.67 2.491 7.67 4.324 12 5.5 3.336 3.018 7.336 4.685 12 5 1.051 1.385 2.384 2.385 4 3 6.502-.134 12.336 1.699 17.5 5.5-.004 6.368-.67 12.701-2 19l-2 2c-.995 4.953-1.662 9.953-2 15a69.2 69.2 0 0 1-4.5 6.5c-5.069.154-10.069-.513-15-2a228.13 228.13 0 0 1-20-8c-1.868-2.789-4.534-4.122-8-4-6.789-4.567-13.789-8.9-21-13-4.193-3.365-8.193-6.865-12-10.5z" opacity=".963"/><path fill="#9de106" d="M1032.5 337.5h1a8.43 8.43 0 0 1 4 .5c5.9 5.9 11.06 12.4 15.5 19.5 1.26 2.107 3.1 3.107 5.5 3 1.66 3.785 2.16 7.785 1.5 12-6.92 3.543-13.42 7.71-19.5 12.5a336.98 336.98 0 0 0-18 9 93.35 93.35 0 0 1-16 5l-5 3a44.99 44.99 0 0 0-14 4c-5.961 1.239-11.961 1.573-18 1a468.02 468.02 0 0 1-5-36 20.11 20.11 0 0 1 1-5.5c6.861-3.587 14.194-5.754 22-6.5 9.252-5.091 18.92-9.424 29-13 2.86-2.031 5.52-4.197 8-6.5h3c.67 0 1-.333 1-1h3c.67 0 1-.333 1-1z" opacity=".946"/><path fill="#9ce206" d="M728.5 354.5v6h5c-.284 6.1-1.951 11.767-5 17-4.394-.446-6.06 1.554-5 6 .056 2.14.723 3.806 2 5-.985 3.576-1.652 7.242-2 11a73.64 73.64 0 0 1-26-4.5c-13.992-1.5-27.992-1.667-42-.5-3.785.089-7.452-.411-11-1.5a343.43 343.43 0 0 0-5.5-23.5 6.86 6.86 0 0 0-3-5 36.23 36.23 0 0 1 0-12 247.2 247.2 0 0 0 19.5-4.5 484.01 484.01 0 0 1 44 0c9.802 1.914 19.469 4.081 29 6.5z" opacity=".939"/><path fill="#6bea00" d="M728.5 354.5c3.946-.012 5.613 1.988 5 6h-5v-6z" opacity=".071"/><path fill="#48f302" d="M330.5 365.5c1.89-.203 3.39.463 4.5 2 .989 2.47 2.155 4.803 3.5 7-4.165-1.823-6.832-4.823-8-9z" opacity=".027"/><path fill="#9de106" d="M887.5 429.5h-82c-1.423-7.443-.923-14.776 1.5-22 .383-.556.883-.889 1.5-1 6.001.043 8.168-2.957 6.5-9-1.11-1.537-2.61-2.203-4.5-2l4-11 46-.5c8.747-1.849 17.414-4.016 26-6.5 1.697.399 3.363.899 5 1.5 2.38 10.936 5.88 21.436 10.5 31.5a84.9 84.9 0 0 1 .5 13c-5.017-.079-9.684 1.088-14 3.5-.752.671-1.086 1.504-1 2.5z" opacity=".934"/><path fill="#9ce206" d="M543.5 429.5h-48v-4h-4v4h-7c.086-.996-.248-1.829-1-2.5a82.19 82.19 0 0 0-12-4c-.608-1.231-.941-2.564-1-4 1.427-4.695 2.593-9.528 3.5-14.5 3.025-4.071 4.359-8.738 4-14a103.38 103.38 0 0 1 4.5-8.5c1.718-.346 3.385-.846 5-1.5l18 3c15.706-1.318 31.206-3.651 46.5-7l5.5.5 2.5 5.5a320.18 320.18 0 0 0 9 27c.667 3.667.667 7.333 0 11-1.491 1.504-3.324 2.337-5.5 2.5-6.666-.154-12.999 1.18-19 4-.752.671-1.086 1.504-1 2.5z" opacity=".911"/><path fill="#77ac03" d="M728.5 377.5v2c-.996-.086-1.829.248-2.5 1-.796 2.539-.629 4.872.5 7 0 .667-.333 1-1 1-1.277-1.194-1.944-2.86-2-5-1.06-4.446.606-6.446 5-6z" opacity=".269"/><path fill="#2d4006" d="M728.5 379.5l-2 8c-1.129-2.128-1.296-4.461-.5-7 .671-.752 1.504-1.086 2.5-1z" opacity=".067"/><path fill="#71ec04" d="M810.5 395.5c1.89-.203 3.39.463 4.5 2 1.668 6.043-.499 9.043-6.5 9 1.591-3.461 2.258-7.128 2-11z" opacity=".737"/><path fill="#8aa502" d="M495.5 429.5h-4v-4h4v4z" opacity=".031"/></svg>